<mxfile host="app.diagrams.net" modified="2022-04-16T13:39:47.685Z" agent="5.0 (Macintosh; Intel Mac OS X 10_15_7) AppleWebKit/605.1.15 (KHTML, like Gecko) Version/15.4 Safari/605.1.15" etag="edQJafD9mtjTuyge0Ffw" version="17.4.5" type="github">
  <diagram id="KMrJF5xkyydDern5e_y1" name="Page-1">
    <mxGraphModel dx="1110" dy="845" grid="1" gridSize="10" guides="1" tooltips="1" connect="1" arrows="1" fold="1" page="1" pageScale="1" pageWidth="827" pageHeight="1169" math="0" shadow="0">
      <root>
        <mxCell id="0" />
        <mxCell id="1" parent="0" />
        <mxCell id="ZWeKVcOg7MyMfSJs-o2y-11" value="Inconsistency localization" style="swimlane;" parent="1" vertex="1">
          <mxGeometry x="72" y="570" width="1198" height="680" as="geometry" />
        </mxCell>
        <mxCell id="n7mDoR5MaPQhv6rX2TrS-96" value="Framework A" style="swimlane;labelBackgroundColor=none;labelBorderColor=none;fillColor=#ffe6cc;strokeColor=#d79b00;" parent="ZWeKVcOg7MyMfSJs-o2y-11" vertex="1">
          <mxGeometry x="38" y="95" width="138" height="200" as="geometry" />
        </mxCell>
        <mxCell id="n7mDoR5MaPQhv6rX2TrS-97" style="edgeStyle=orthogonalEdgeStyle;rounded=0;orthogonalLoop=1;jettySize=auto;html=1;entryX=0.5;entryY=0;entryDx=0;entryDy=0;endArrow=none;endFill=0;dashed=1;" parent="n7mDoR5MaPQhv6rX2TrS-96" target="n7mDoR5MaPQhv6rX2TrS-99" edge="1">
          <mxGeometry relative="1" as="geometry">
            <mxPoint x="69" y="30" as="sourcePoint" />
          </mxGeometry>
        </mxCell>
        <mxCell id="n7mDoR5MaPQhv6rX2TrS-98" style="edgeStyle=orthogonalEdgeStyle;rounded=0;orthogonalLoop=1;jettySize=auto;html=1;endArrow=classic;endFill=1;" parent="n7mDoR5MaPQhv6rX2TrS-96" source="n7mDoR5MaPQhv6rX2TrS-99" target="n7mDoR5MaPQhv6rX2TrS-100" edge="1">
          <mxGeometry relative="1" as="geometry" />
        </mxCell>
        <mxCell id="n7mDoR5MaPQhv6rX2TrS-99" value="Layer i-1" style="rounded=1;whiteSpace=wrap;html=1;labelBackgroundColor=none;labelBorderColor=none;fillColor=#ffe6cc;strokeColor=#d79b00;" parent="n7mDoR5MaPQhv6rX2TrS-96" vertex="1">
          <mxGeometry x="18" y="60" width="102" height="30" as="geometry" />
        </mxCell>
        <mxCell id="n7mDoR5MaPQhv6rX2TrS-100" value="Layer i" style="rounded=1;whiteSpace=wrap;html=1;labelBackgroundColor=none;labelBorderColor=none;fillColor=#ffe6cc;strokeColor=#d79b00;" parent="n7mDoR5MaPQhv6rX2TrS-96" vertex="1">
          <mxGeometry x="18" y="120" width="102" height="30" as="geometry" />
        </mxCell>
        <mxCell id="n7mDoR5MaPQhv6rX2TrS-102" value="Framework B" style="swimlane;labelBackgroundColor=none;labelBorderColor=none;fillColor=#dae8fc;strokeColor=#6c8ebf;" parent="ZWeKVcOg7MyMfSJs-o2y-11" vertex="1">
          <mxGeometry x="190" y="95" width="138" height="200" as="geometry" />
        </mxCell>
        <mxCell id="n7mDoR5MaPQhv6rX2TrS-103" style="edgeStyle=orthogonalEdgeStyle;rounded=0;orthogonalLoop=1;jettySize=auto;html=1;entryX=0.5;entryY=0;entryDx=0;entryDy=0;endArrow=none;endFill=0;dashed=1;" parent="n7mDoR5MaPQhv6rX2TrS-102" target="n7mDoR5MaPQhv6rX2TrS-105" edge="1">
          <mxGeometry relative="1" as="geometry">
            <mxPoint x="69" y="30" as="sourcePoint" />
          </mxGeometry>
        </mxCell>
        <mxCell id="n7mDoR5MaPQhv6rX2TrS-104" style="edgeStyle=orthogonalEdgeStyle;rounded=0;orthogonalLoop=1;jettySize=auto;html=1;endArrow=classic;endFill=1;" parent="n7mDoR5MaPQhv6rX2TrS-102" source="n7mDoR5MaPQhv6rX2TrS-105" target="n7mDoR5MaPQhv6rX2TrS-106" edge="1">
          <mxGeometry relative="1" as="geometry" />
        </mxCell>
        <mxCell id="n7mDoR5MaPQhv6rX2TrS-105" value="Layer i-1" style="rounded=1;whiteSpace=wrap;html=1;labelBackgroundColor=none;labelBorderColor=none;fillColor=#dae8fc;strokeColor=#6c8ebf;" parent="n7mDoR5MaPQhv6rX2TrS-102" vertex="1">
          <mxGeometry x="18" y="60" width="102" height="30" as="geometry" />
        </mxCell>
        <mxCell id="n7mDoR5MaPQhv6rX2TrS-106" value="Layer i" style="rounded=1;whiteSpace=wrap;html=1;labelBackgroundColor=none;labelBorderColor=none;fillColor=#dae8fc;strokeColor=#6c8ebf;" parent="n7mDoR5MaPQhv6rX2TrS-102" vertex="1">
          <mxGeometry x="18" y="120" width="102" height="30" as="geometry" />
        </mxCell>
        <mxCell id="n7mDoR5MaPQhv6rX2TrS-107" value="If one framework have normal output &lt;span style=&quot;white-space: pre&quot;&gt; &lt;br&gt;&lt;/span&gt;but the other results NaN" style="rounded=1;whiteSpace=wrap;html=1;align=left;" parent="ZWeKVcOg7MyMfSJs-o2y-11" vertex="1">
          <mxGeometry x="54" y="43" width="252" height="40" as="geometry" />
        </mxCell>
        <mxCell id="n7mDoR5MaPQhv6rX2TrS-108" value="Framework A" style="swimlane;labelBackgroundColor=none;labelBorderColor=none;fillColor=#ffe6cc;strokeColor=#d79b00;" parent="ZWeKVcOg7MyMfSJs-o2y-11" vertex="1">
          <mxGeometry x="38" y="377" width="138" height="250" as="geometry" />
        </mxCell>
        <mxCell id="n7mDoR5MaPQhv6rX2TrS-109" style="edgeStyle=orthogonalEdgeStyle;rounded=0;orthogonalLoop=1;jettySize=auto;html=1;entryX=0.5;entryY=0;entryDx=0;entryDy=0;endArrow=none;endFill=0;dashed=1;" parent="n7mDoR5MaPQhv6rX2TrS-108" target="n7mDoR5MaPQhv6rX2TrS-111" edge="1">
          <mxGeometry relative="1" as="geometry">
            <mxPoint x="69" y="30" as="sourcePoint" />
          </mxGeometry>
        </mxCell>
        <mxCell id="n7mDoR5MaPQhv6rX2TrS-110" style="edgeStyle=orthogonalEdgeStyle;rounded=0;orthogonalLoop=1;jettySize=auto;html=1;endArrow=classic;endFill=1;" parent="n7mDoR5MaPQhv6rX2TrS-108" source="n7mDoR5MaPQhv6rX2TrS-111" target="n7mDoR5MaPQhv6rX2TrS-112" edge="1">
          <mxGeometry relative="1" as="geometry" />
        </mxCell>
        <mxCell id="n7mDoR5MaPQhv6rX2TrS-111" value="Layer i-1" style="rounded=1;whiteSpace=wrap;html=1;labelBackgroundColor=none;labelBorderColor=none;fillColor=#ffe6cc;strokeColor=#d79b00;" parent="n7mDoR5MaPQhv6rX2TrS-108" vertex="1">
          <mxGeometry x="18" y="60" width="102" height="30" as="geometry" />
        </mxCell>
        <mxCell id="n7mDoR5MaPQhv6rX2TrS-112" value="Layer i" style="rounded=1;whiteSpace=wrap;html=1;labelBackgroundColor=none;labelBorderColor=none;fillColor=#ffe6cc;strokeColor=#d79b00;" parent="n7mDoR5MaPQhv6rX2TrS-108" vertex="1">
          <mxGeometry x="18" y="120" width="102" height="30" as="geometry" />
        </mxCell>
        <mxCell id="n7mDoR5MaPQhv6rX2TrS-114" value="Framework B" style="swimlane;labelBackgroundColor=none;labelBorderColor=none;fillColor=#dae8fc;strokeColor=#6c8ebf;" parent="ZWeKVcOg7MyMfSJs-o2y-11" vertex="1">
          <mxGeometry x="190" y="377" width="138" height="250" as="geometry" />
        </mxCell>
        <mxCell id="n7mDoR5MaPQhv6rX2TrS-115" style="edgeStyle=orthogonalEdgeStyle;rounded=0;orthogonalLoop=1;jettySize=auto;html=1;entryX=0.5;entryY=0;entryDx=0;entryDy=0;endArrow=none;endFill=0;dashed=1;" parent="n7mDoR5MaPQhv6rX2TrS-114" target="n7mDoR5MaPQhv6rX2TrS-117" edge="1">
          <mxGeometry relative="1" as="geometry">
            <mxPoint x="69" y="30" as="sourcePoint" />
          </mxGeometry>
        </mxCell>
        <mxCell id="n7mDoR5MaPQhv6rX2TrS-117" value="Layer i-1" style="rounded=1;whiteSpace=wrap;html=1;labelBackgroundColor=none;labelBorderColor=none;fillColor=#dae8fc;strokeColor=#6c8ebf;" parent="n7mDoR5MaPQhv6rX2TrS-114" vertex="1">
          <mxGeometry x="18" y="60" width="102" height="30" as="geometry" />
        </mxCell>
        <mxCell id="n7mDoR5MaPQhv6rX2TrS-118" value="Layer i" style="rounded=1;whiteSpace=wrap;html=1;labelBackgroundColor=none;labelBorderColor=none;fillColor=#d5e8d4;strokeColor=#82b366;" parent="n7mDoR5MaPQhv6rX2TrS-114" vertex="1">
          <mxGeometry x="18" y="120" width="102" height="30" as="geometry" />
        </mxCell>
        <mxCell id="n7mDoR5MaPQhv6rX2TrS-132" value="" style="shape=flexArrow;endArrow=classic;html=1;rounded=0;fontSize=10;" parent="ZWeKVcOg7MyMfSJs-o2y-11" edge="1">
          <mxGeometry width="50" height="50" relative="1" as="geometry">
            <mxPoint x="182.5" y="307" as="sourcePoint" />
            <mxPoint x="182.5" y="367" as="targetPoint" />
          </mxGeometry>
        </mxCell>
        <mxCell id="n7mDoR5MaPQhv6rX2TrS-154" style="edgeStyle=orthogonalEdgeStyle;rounded=0;orthogonalLoop=1;jettySize=auto;html=1;labelBackgroundColor=none;fontSize=10;fontColor=#FF0000;startArrow=classic;startFill=1;endArrow=none;endFill=0;" parent="ZWeKVcOg7MyMfSJs-o2y-11" edge="1">
          <mxGeometry relative="1" as="geometry">
            <mxPoint x="828" y="505" as="targetPoint" />
          </mxGeometry>
        </mxCell>
        <mxCell id="n7mDoR5MaPQhv6rX2TrS-155" value="&lt;font color=&quot;#000000&quot; style=&quot;font-size: 8px&quot;&gt;substitue&lt;br&gt;output&lt;/font&gt;" style="edgeLabel;html=1;align=center;verticalAlign=middle;resizable=0;points=[];fontSize=10;fontColor=#FF0000;" parent="n7mDoR5MaPQhv6rX2TrS-154" vertex="1" connectable="0">
          <mxGeometry y="2" relative="1" as="geometry">
            <mxPoint as="offset" />
          </mxGeometry>
        </mxCell>
        <mxCell id="-h4L0-unDVR0govAWTsC-1" value="Case 1:&lt;br&gt;NaN persists" style="shape=flexArrow;endArrow=classic;html=1;rounded=0;width=44.70588235294118;endSize=6.905882352941177;" edge="1" parent="ZWeKVcOg7MyMfSJs-o2y-11">
          <mxGeometry width="50" height="50" relative="1" as="geometry">
            <mxPoint x="378" y="194" as="sourcePoint" />
            <mxPoint x="448" y="194.41" as="targetPoint" />
          </mxGeometry>
        </mxCell>
        <mxCell id="-h4L0-unDVR0govAWTsC-2" value="Case 2:&lt;br&gt;NaN gone" style="shape=flexArrow;endArrow=classic;html=1;rounded=0;width=44.70588235294118;endSize=6.905882352941177;" edge="1" parent="ZWeKVcOg7MyMfSJs-o2y-11">
          <mxGeometry width="50" height="50" relative="1" as="geometry">
            <mxPoint x="378" y="501" as="sourcePoint" />
            <mxPoint x="447.9999999999998" y="501.40999999999985" as="targetPoint" />
          </mxGeometry>
        </mxCell>
        <mxCell id="-h4L0-unDVR0govAWTsC-5" value="&lt;h1&gt;&lt;font color=&quot;#ff0000&quot;&gt;Inconsistency is localised in Layer i&lt;/font&gt;&lt;/h1&gt;" style="text;html=1;strokeColor=none;fillColor=none;spacing=5;spacingTop=-20;whiteSpace=wrap;overflow=hidden;rounded=0;fontSize=12;" vertex="1" parent="ZWeKVcOg7MyMfSJs-o2y-11">
          <mxGeometry x="488" y="135" width="190" height="120" as="geometry" />
        </mxCell>
        <mxCell id="-h4L0-unDVR0govAWTsC-8" value="Check layer difference in current layer and previous layers" style="rounded=1;whiteSpace=wrap;html=1;align=left;" vertex="1" parent="ZWeKVcOg7MyMfSJs-o2y-11">
          <mxGeometry x="488" y="320" width="252" height="40" as="geometry" />
        </mxCell>
        <mxCell id="-h4L0-unDVR0govAWTsC-9" value="Framework A" style="swimlane;labelBackgroundColor=none;labelBorderColor=none;fillColor=#ffe6cc;strokeColor=#d79b00;" vertex="1" parent="ZWeKVcOg7MyMfSJs-o2y-11">
          <mxGeometry x="478" y="377" width="138" height="250" as="geometry" />
        </mxCell>
        <mxCell id="-h4L0-unDVR0govAWTsC-11" style="edgeStyle=orthogonalEdgeStyle;rounded=0;orthogonalLoop=1;jettySize=auto;html=1;endArrow=classic;endFill=1;" edge="1" parent="-h4L0-unDVR0govAWTsC-9" source="-h4L0-unDVR0govAWTsC-12" target="-h4L0-unDVR0govAWTsC-13">
          <mxGeometry relative="1" as="geometry" />
        </mxCell>
        <mxCell id="-h4L0-unDVR0govAWTsC-12" value="Layer i-1" style="rounded=1;whiteSpace=wrap;html=1;labelBackgroundColor=none;labelBorderColor=none;fillColor=#ffe6cc;strokeColor=#d79b00;" vertex="1" parent="-h4L0-unDVR0govAWTsC-9">
          <mxGeometry x="18" y="133" width="102" height="30" as="geometry" />
        </mxCell>
        <mxCell id="-h4L0-unDVR0govAWTsC-13" value="Layer i" style="rounded=1;whiteSpace=wrap;html=1;labelBackgroundColor=none;labelBorderColor=none;fillColor=#ffe6cc;strokeColor=#d79b00;" vertex="1" parent="-h4L0-unDVR0govAWTsC-9">
          <mxGeometry x="18" y="192" width="102" height="30" as="geometry" />
        </mxCell>
        <mxCell id="-h4L0-unDVR0govAWTsC-24" style="edgeStyle=orthogonalEdgeStyle;rounded=0;orthogonalLoop=1;jettySize=auto;html=1;exitX=0.5;exitY=1;exitDx=0;exitDy=0;entryX=0.5;entryY=0;entryDx=0;entryDy=0;fontSize=12;fontColor=#FF0000;endArrow=none;endFill=0;dashed=1;" edge="1" parent="-h4L0-unDVR0govAWTsC-9" source="-h4L0-unDVR0govAWTsC-22" target="-h4L0-unDVR0govAWTsC-12">
          <mxGeometry relative="1" as="geometry" />
        </mxCell>
        <mxCell id="-h4L0-unDVR0govAWTsC-22" value="Layer 1" style="rounded=1;whiteSpace=wrap;html=1;labelBackgroundColor=none;labelBorderColor=none;fillColor=#ffe6cc;strokeColor=#d79b00;" vertex="1" parent="-h4L0-unDVR0govAWTsC-9">
          <mxGeometry x="18" y="43" width="102" height="30" as="geometry" />
        </mxCell>
        <mxCell id="-h4L0-unDVR0govAWTsC-14" value="Framework B" style="swimlane;labelBackgroundColor=none;labelBorderColor=none;fillColor=#dae8fc;strokeColor=#6c8ebf;" vertex="1" parent="ZWeKVcOg7MyMfSJs-o2y-11">
          <mxGeometry x="630" y="377" width="138" height="250" as="geometry" />
        </mxCell>
        <mxCell id="-h4L0-unDVR0govAWTsC-16" style="edgeStyle=orthogonalEdgeStyle;rounded=0;orthogonalLoop=1;jettySize=auto;html=1;endArrow=classic;endFill=1;" edge="1" parent="-h4L0-unDVR0govAWTsC-14" source="-h4L0-unDVR0govAWTsC-17" target="-h4L0-unDVR0govAWTsC-18">
          <mxGeometry relative="1" as="geometry" />
        </mxCell>
        <mxCell id="-h4L0-unDVR0govAWTsC-17" value="Layer i-1" style="rounded=1;whiteSpace=wrap;html=1;labelBackgroundColor=none;labelBorderColor=none;fillColor=#dae8fc;strokeColor=#6c8ebf;" vertex="1" parent="-h4L0-unDVR0govAWTsC-14">
          <mxGeometry x="18" y="133" width="102" height="30" as="geometry" />
        </mxCell>
        <mxCell id="-h4L0-unDVR0govAWTsC-18" value="Layer i" style="rounded=1;whiteSpace=wrap;html=1;labelBackgroundColor=none;labelBorderColor=none;fillColor=#d5e8d4;strokeColor=#82b366;" vertex="1" parent="-h4L0-unDVR0govAWTsC-14">
          <mxGeometry x="18" y="192" width="102" height="30" as="geometry" />
        </mxCell>
        <mxCell id="-h4L0-unDVR0govAWTsC-25" style="edgeStyle=orthogonalEdgeStyle;rounded=0;orthogonalLoop=1;jettySize=auto;html=1;exitX=0.5;exitY=1;exitDx=0;exitDy=0;entryX=0.5;entryY=0;entryDx=0;entryDy=0;dashed=1;fontSize=12;fontColor=#FF0000;endArrow=none;endFill=0;" edge="1" parent="-h4L0-unDVR0govAWTsC-14" source="-h4L0-unDVR0govAWTsC-23" target="-h4L0-unDVR0govAWTsC-17">
          <mxGeometry relative="1" as="geometry" />
        </mxCell>
        <mxCell id="-h4L0-unDVR0govAWTsC-23" value="Layer 1" style="rounded=1;whiteSpace=wrap;html=1;labelBackgroundColor=none;labelBorderColor=none;fillColor=#dae8fc;strokeColor=#6c8ebf;" vertex="1" parent="-h4L0-unDVR0govAWTsC-14">
          <mxGeometry x="18" y="43" width="102" height="30" as="geometry" />
        </mxCell>
        <mxCell id="-h4L0-unDVR0govAWTsC-26" value="&lt;font style=&quot;font-size: 8px&quot; color=&quot;#000000&quot;&gt;compare&lt;/font&gt;" style="edgeStyle=orthogonalEdgeStyle;rounded=0;orthogonalLoop=1;jettySize=auto;html=1;exitX=1;exitY=0.5;exitDx=0;exitDy=0;entryX=0;entryY=0.5;entryDx=0;entryDy=0;dashed=1;fontSize=12;fontColor=#FF0000;endArrow=none;endFill=0;" edge="1" parent="ZWeKVcOg7MyMfSJs-o2y-11" source="-h4L0-unDVR0govAWTsC-22" target="-h4L0-unDVR0govAWTsC-23">
          <mxGeometry relative="1" as="geometry" />
        </mxCell>
        <mxCell id="-h4L0-unDVR0govAWTsC-27" style="edgeStyle=orthogonalEdgeStyle;rounded=0;orthogonalLoop=1;jettySize=auto;html=1;exitX=1;exitY=0.5;exitDx=0;exitDy=0;entryX=0;entryY=0.5;entryDx=0;entryDy=0;dashed=1;fontSize=12;fontColor=#FF0000;endArrow=none;endFill=0;" edge="1" parent="ZWeKVcOg7MyMfSJs-o2y-11" source="-h4L0-unDVR0govAWTsC-12" target="-h4L0-unDVR0govAWTsC-17">
          <mxGeometry relative="1" as="geometry" />
        </mxCell>
        <mxCell id="-h4L0-unDVR0govAWTsC-31" value="compare" style="edgeLabel;html=1;align=center;verticalAlign=middle;resizable=0;points=[];fontSize=8;fontColor=#000000;" vertex="1" connectable="0" parent="-h4L0-unDVR0govAWTsC-27">
          <mxGeometry x="-0.1012" y="-1" relative="1" as="geometry">
            <mxPoint as="offset" />
          </mxGeometry>
        </mxCell>
        <mxCell id="-h4L0-unDVR0govAWTsC-28" value="&lt;font style=&quot;font-size: 11px&quot; color=&quot;#000000&quot;&gt;substitute output&lt;/font&gt;" style="edgeStyle=orthogonalEdgeStyle;rounded=0;orthogonalLoop=1;jettySize=auto;html=1;exitX=0.75;exitY=1;exitDx=0;exitDy=0;entryX=0.5;entryY=0;entryDx=0;entryDy=0;fontSize=12;fontColor=#FF0000;endArrow=classic;endFill=1;" edge="1" parent="ZWeKVcOg7MyMfSJs-o2y-11" source="n7mDoR5MaPQhv6rX2TrS-111" target="n7mDoR5MaPQhv6rX2TrS-118">
          <mxGeometry relative="1" as="geometry" />
        </mxCell>
        <mxCell id="-h4L0-unDVR0govAWTsC-30" style="edgeStyle=orthogonalEdgeStyle;rounded=0;orthogonalLoop=1;jettySize=auto;html=1;exitX=1;exitY=0.5;exitDx=0;exitDy=0;entryX=0;entryY=0.5;entryDx=0;entryDy=0;fontSize=11;fontColor=#000000;endArrow=none;endFill=0;dashed=1;" edge="1" parent="ZWeKVcOg7MyMfSJs-o2y-11" source="-h4L0-unDVR0govAWTsC-13" target="-h4L0-unDVR0govAWTsC-18">
          <mxGeometry relative="1" as="geometry" />
        </mxCell>
        <mxCell id="-h4L0-unDVR0govAWTsC-32" value="compare" style="edgeLabel;html=1;align=center;verticalAlign=middle;resizable=0;points=[];fontSize=8;fontColor=#000000;" vertex="1" connectable="0" parent="-h4L0-unDVR0govAWTsC-30">
          <mxGeometry x="-0.0071" y="-3" relative="1" as="geometry">
            <mxPoint as="offset" />
          </mxGeometry>
        </mxCell>
        <mxCell id="-h4L0-unDVR0govAWTsC-33" value="Extract layer 1-i to build a new model AND&lt;br&gt;pass it to AUDEE&#39;s Source Localisation" style="rounded=1;whiteSpace=wrap;html=1;align=left;" vertex="1" parent="ZWeKVcOg7MyMfSJs-o2y-11">
          <mxGeometry x="888" y="320" width="252" height="40" as="geometry" />
        </mxCell>
        <mxCell id="-h4L0-unDVR0govAWTsC-51" value="" style="shape=flexArrow;endArrow=classic;html=1;rounded=0;width=44.70588235294118;endSize=6.905882352941177;" edge="1" parent="ZWeKVcOg7MyMfSJs-o2y-11">
          <mxGeometry width="50" height="50" relative="1" as="geometry">
            <mxPoint x="817.9999999999998" y="501.40999999999997" as="sourcePoint" />
            <mxPoint x="887.9999999999998" y="501.8199999999998" as="targetPoint" />
          </mxGeometry>
        </mxCell>
        <mxCell id="-h4L0-unDVR0govAWTsC-55" style="edgeStyle=orthogonalEdgeStyle;rounded=0;orthogonalLoop=1;jettySize=auto;html=1;exitX=0.5;exitY=1;exitDx=0;exitDy=0;entryX=0.5;entryY=0;entryDx=0;entryDy=0;fontSize=14;fontColor=#000000;endArrow=classic;endFill=1;startArrow=none;startFill=0;" edge="1" parent="ZWeKVcOg7MyMfSJs-o2y-11" source="-h4L0-unDVR0govAWTsC-53" target="-h4L0-unDVR0govAWTsC-54">
          <mxGeometry relative="1" as="geometry" />
        </mxCell>
        <mxCell id="-h4L0-unDVR0govAWTsC-53" value="&lt;font style=&quot;font-size: 14px&quot;&gt;Model&#39;&lt;/font&gt;" style="rounded=1;whiteSpace=wrap;html=1;fontSize=8;fontColor=#000000;" vertex="1" parent="ZWeKVcOg7MyMfSJs-o2y-11">
          <mxGeometry x="948" y="390" width="120" height="60" as="geometry" />
        </mxCell>
        <mxCell id="-h4L0-unDVR0govAWTsC-54" value="AUDEE&#39;s SL" style="rounded=0;whiteSpace=wrap;html=1;fontSize=14;fontColor=#000000;" vertex="1" parent="ZWeKVcOg7MyMfSJs-o2y-11">
          <mxGeometry x="948" y="509" width="120" height="60" as="geometry" />
        </mxCell>
        <mxCell id="ZWeKVcOg7MyMfSJs-o2y-24" style="edgeStyle=orthogonalEdgeStyle;rounded=0;orthogonalLoop=1;jettySize=auto;html=1;exitX=0.25;exitY=1;exitDx=0;exitDy=0;entryX=0.5;entryY=0;entryDx=0;entryDy=0;" parent="1" source="ZWeKVcOg7MyMfSJs-o2y-16" target="ZWeKVcOg7MyMfSJs-o2y-25" edge="1">
          <mxGeometry relative="1" as="geometry">
            <mxPoint x="223" y="260" as="targetPoint" />
          </mxGeometry>
        </mxCell>
        <mxCell id="ZWeKVcOg7MyMfSJs-o2y-27" style="edgeStyle=orthogonalEdgeStyle;rounded=0;orthogonalLoop=1;jettySize=auto;html=1;exitX=0.75;exitY=1;exitDx=0;exitDy=0;entryX=0.5;entryY=0;entryDx=0;entryDy=0;" parent="1" source="ZWeKVcOg7MyMfSJs-o2y-16" target="ZWeKVcOg7MyMfSJs-o2y-26" edge="1">
          <mxGeometry relative="1" as="geometry" />
        </mxCell>
        <mxCell id="ZWeKVcOg7MyMfSJs-o2y-16" value="Inconsistency detection phase" style="swimlane;fillColor=#d5e8d4;strokeColor=#82b366;" parent="1" vertex="1">
          <mxGeometry x="140" y="50" width="330" height="160" as="geometry" />
        </mxCell>
        <mxCell id="ZWeKVcOg7MyMfSJs-o2y-17" value="Framework 1" style="rounded=1;whiteSpace=wrap;html=1;fillColor=#d5e8d4;strokeColor=#82b366;" parent="ZWeKVcOg7MyMfSJs-o2y-16" vertex="1">
          <mxGeometry x="20" y="60" width="120" height="60" as="geometry" />
        </mxCell>
        <mxCell id="ZWeKVcOg7MyMfSJs-o2y-18" value="Framework 2" style="rounded=1;whiteSpace=wrap;html=1;fillColor=#d5e8d4;strokeColor=#82b366;" parent="ZWeKVcOg7MyMfSJs-o2y-16" vertex="1">
          <mxGeometry x="190" y="60" width="120" height="60" as="geometry" />
        </mxCell>
        <mxCell id="ZWeKVcOg7MyMfSJs-o2y-21" style="edgeStyle=orthogonalEdgeStyle;rounded=0;orthogonalLoop=1;jettySize=auto;html=1;" parent="1" source="ZWeKVcOg7MyMfSJs-o2y-19" edge="1">
          <mxGeometry relative="1" as="geometry">
            <mxPoint x="470" y="100" as="targetPoint" />
          </mxGeometry>
        </mxCell>
        <mxCell id="ZWeKVcOg7MyMfSJs-o2y-19" value="Model" style="rounded=0;whiteSpace=wrap;html=1;" parent="1" vertex="1">
          <mxGeometry x="540" y="70" width="120" height="60" as="geometry" />
        </mxCell>
        <mxCell id="ZWeKVcOg7MyMfSJs-o2y-22" style="edgeStyle=orthogonalEdgeStyle;rounded=0;orthogonalLoop=1;jettySize=auto;html=1;" parent="1" source="ZWeKVcOg7MyMfSJs-o2y-20" edge="1">
          <mxGeometry relative="1" as="geometry">
            <mxPoint x="470" y="180" as="targetPoint" />
          </mxGeometry>
        </mxCell>
        <mxCell id="ZWeKVcOg7MyMfSJs-o2y-20" value="Input" style="rounded=0;whiteSpace=wrap;html=1;" parent="1" vertex="1">
          <mxGeometry x="540" y="150" width="120" height="60" as="geometry" />
        </mxCell>
        <mxCell id="ZWeKVcOg7MyMfSJs-o2y-36" value="" style="edgeStyle=orthogonalEdgeStyle;rounded=0;orthogonalLoop=1;jettySize=auto;html=1;entryX=0.5;entryY=0;entryDx=0;entryDy=0;" parent="1" source="ZWeKVcOg7MyMfSJs-o2y-25" target="ZWeKVcOg7MyMfSJs-o2y-43" edge="1">
          <mxGeometry relative="1" as="geometry">
            <mxPoint x="222" y="390" as="targetPoint" />
          </mxGeometry>
        </mxCell>
        <mxCell id="ZWeKVcOg7MyMfSJs-o2y-40" value="else" style="edgeLabel;html=1;align=center;verticalAlign=middle;resizable=0;points=[];" parent="ZWeKVcOg7MyMfSJs-o2y-36" vertex="1" connectable="0">
          <mxGeometry relative="1" as="geometry">
            <mxPoint as="offset" />
          </mxGeometry>
        </mxCell>
        <mxCell id="ZWeKVcOg7MyMfSJs-o2y-39" value="If the layers&lt;br&gt;in the 2&lt;br&gt;frameworks&lt;br&gt;are identical" style="edgeStyle=orthogonalEdgeStyle;rounded=0;orthogonalLoop=1;jettySize=auto;html=1;entryX=1;entryY=0.5;entryDx=0;entryDy=0;" parent="1" source="ZWeKVcOg7MyMfSJs-o2y-25" target="ZWeKVcOg7MyMfSJs-o2y-38" edge="1">
          <mxGeometry relative="1" as="geometry" />
        </mxCell>
        <mxCell id="ZWeKVcOg7MyMfSJs-o2y-25" value="Layers with NaN in the 2 frameworks" style="rounded=0;whiteSpace=wrap;html=1;fillColor=#fff2cc;strokeColor=#d6b656;" parent="1" vertex="1">
          <mxGeometry x="162" y="270" width="120" height="60" as="geometry" />
        </mxCell>
        <mxCell id="ZWeKVcOg7MyMfSJs-o2y-33" value="else" style="edgeStyle=orthogonalEdgeStyle;rounded=0;orthogonalLoop=1;jettySize=auto;html=1;" parent="1" source="ZWeKVcOg7MyMfSJs-o2y-26" target="ZWeKVcOg7MyMfSJs-o2y-32" edge="1">
          <mxGeometry relative="1" as="geometry" />
        </mxCell>
        <mxCell id="ZWeKVcOg7MyMfSJs-o2y-42" value="If there is&amp;nbsp;&lt;br&gt;NaN&amp;nbsp;in the &lt;br&gt;predictions" style="edgeStyle=orthogonalEdgeStyle;rounded=0;orthogonalLoop=1;jettySize=auto;html=1;entryX=0;entryY=0.5;entryDx=0;entryDy=0;" parent="1" source="ZWeKVcOg7MyMfSJs-o2y-26" target="ZWeKVcOg7MyMfSJs-o2y-47" edge="1">
          <mxGeometry relative="1" as="geometry">
            <mxPoint x="530" y="300" as="targetPoint" />
          </mxGeometry>
        </mxCell>
        <mxCell id="ZWeKVcOg7MyMfSJs-o2y-26" value="Predictions from logit layers" style="rounded=0;whiteSpace=wrap;html=1;fillColor=#d5e8d4;strokeColor=#82b366;" parent="1" vertex="1">
          <mxGeometry x="328" y="270" width="120" height="60" as="geometry" />
        </mxCell>
        <mxCell id="ZWeKVcOg7MyMfSJs-o2y-32" value="Compute Fitness values" style="whiteSpace=wrap;html=1;rounded=0;fillColor=#d5e8d4;strokeColor=#82b366;" parent="1" vertex="1">
          <mxGeometry x="328" y="390" width="120" height="60" as="geometry" />
        </mxCell>
        <mxCell id="ZWeKVcOg7MyMfSJs-o2y-38" value="" style="ellipse;html=1;shape=endState;fillColor=#000000;strokeColor=#ff0000;labelBackgroundColor=none;labelBorderColor=none;" parent="1" vertex="1">
          <mxGeometry x="20" y="285" width="30" height="30" as="geometry" />
        </mxCell>
        <mxCell id="ZWeKVcOg7MyMfSJs-o2y-44" value="Framework&amp;nbsp;with additional &lt;br&gt;NaN&amp;nbsp;layers as Framework A,&lt;br&gt;the other one as Framework B" style="edgeStyle=orthogonalEdgeStyle;rounded=0;orthogonalLoop=1;jettySize=auto;html=1;entryX=0.5;entryY=0;entryDx=0;entryDy=0;" parent="1" source="ZWeKVcOg7MyMfSJs-o2y-43" target="ZWeKVcOg7MyMfSJs-o2y-11" edge="1">
          <mxGeometry x="-0.1667" relative="1" as="geometry">
            <mxPoint x="420" y="520" as="targetPoint" />
            <Array as="points" />
            <mxPoint as="offset" />
          </mxGeometry>
        </mxCell>
        <mxCell id="ZWeKVcOg7MyMfSJs-o2y-43" value="Find the set difference of the &lt;br&gt;NaN layers" style="rounded=0;whiteSpace=wrap;html=1;labelBackgroundColor=none;labelBorderColor=none;fillColor=#fff2cc;strokeColor=#d6b656;" parent="1" vertex="1">
          <mxGeometry x="162" y="390" width="120" height="60" as="geometry" />
        </mxCell>
        <mxCell id="ZWeKVcOg7MyMfSJs-o2y-47" value="Remove Chromosome" style="rounded=0;whiteSpace=wrap;html=1;labelBackgroundColor=none;labelBorderColor=none;" parent="1" vertex="1">
          <mxGeometry x="530" y="270" width="120" height="60" as="geometry" />
        </mxCell>
        <mxCell id="n7mDoR5MaPQhv6rX2TrS-123" value="Normal outputs" style="edgeStyle=orthogonalEdgeStyle;rounded=0;orthogonalLoop=1;jettySize=auto;html=1;endArrow=none;endFill=0;dashed=1;exitX=0.5;exitY=1;exitDx=0;exitDy=0;" parent="1" source="n7mDoR5MaPQhv6rX2TrS-100" edge="1">
          <mxGeometry relative="1" as="geometry">
            <mxPoint x="179" y="855" as="targetPoint" />
            <Array as="points" />
          </mxGeometry>
        </mxCell>
        <mxCell id="n7mDoR5MaPQhv6rX2TrS-124" value="NaN outputs" style="edgeStyle=orthogonalEdgeStyle;rounded=0;orthogonalLoop=1;jettySize=auto;html=1;endArrow=none;endFill=0;dashed=1;exitX=0.5;exitY=1;exitDx=0;exitDy=0;" parent="1" source="n7mDoR5MaPQhv6rX2TrS-106" edge="1">
          <mxGeometry relative="1" as="geometry">
            <mxPoint x="331" y="855" as="targetPoint" />
            <Array as="points" />
            <mxPoint x="189" y="857" as="sourcePoint" />
          </mxGeometry>
        </mxCell>
        <mxCell id="-h4L0-unDVR0govAWTsC-79" value="" style="curved=1;endArrow=classic;html=1;rounded=0;fontSize=14;fontColor=#000000;" edge="1" parent="1">
          <mxGeometry width="50" height="50" relative="1" as="geometry">
            <mxPoint x="1170" y="1040" as="sourcePoint" />
            <mxPoint x="270" y="1210" as="targetPoint" />
            <Array as="points">
              <mxPoint x="1220" y="1040" />
              <mxPoint x="960" y="1320" />
              <mxPoint x="460" y="1310" />
            </Array>
          </mxGeometry>
        </mxCell>
        <mxCell id="-h4L0-unDVR0govAWTsC-81" value="if there is more NaN after i+1" style="edgeLabel;html=1;align=center;verticalAlign=middle;resizable=0;points=[];fontSize=14;fontColor=#000000;" vertex="1" connectable="0" parent="-h4L0-unDVR0govAWTsC-79">
          <mxGeometry x="0.294" y="1" relative="1" as="geometry">
            <mxPoint as="offset" />
          </mxGeometry>
        </mxCell>
      </root>
    </mxGraphModel>
  </diagram>
</mxfile>
